<svg id="92c6d4da-c32d-499b-80b4-7c0be7417c33" data-name="Layer 1" xmlns="http://www.w3.org/2000/svg" viewBox="0 0 512 512">
  <title>hljs</title>
  <g>
    <path d="M.5,511.5V.5h511v511Zm250.85-90.06.41.13a87.43,87.43,0,0,0,18.13,3.88c6.4.7,11.31,1.05,14.58,1.05,22.43,0,39.86-5.94,51.8-17.64s18-30,18-54.26v-178H301.12V353.2c0,9.19-1.62,16.28-4.82,21.07s-8.78,7.13-16.73,7.13a72.06,72.06,0,0,1-10.95-.69,62.83,62.83,0,0,1-9.54-2.43l-.56-.19Zm113.85-67.2.36.17c4.19,1.86,11.81,4.23,22.66,7s24.6,4.22,40.9,4.22c24.94,0,44.53-4.73,58.2-14S508,328.22,508,310a71.12,71.12,0,0,0-2.65-20.39,41.81,41.81,0,0,0-9.21-16.09c-4.34-4.79-10.33-9.31-17.8-13.43a215.48,215.48,0,0,0-28.42-12.56c-5.55-2.1-10.19-4.05-13.78-5.8a58.84,58.84,0,0,1-8.5-4.88,11.45,11.45,0,0,1-4-4.52,13.61,13.61,0,0,1-1-5.4c0-8.73,8.07-13.15,24-13.15a107.54,107.54,0,0,1,23.86,2.44,191.4,191.4,0,0,1,19.72,5.58l.53.19,9.32-41.57-.4-.16a152.64,152.64,0,0,0-24.59-6.5,171,171,0,0,0-32.29-3c-22.41,0-40.3,5.1-53.16,15.16s-19.44,24-19.44,41.34c0,8.9,1.3,16.62,3.88,22.94a48,48,0,0,0,11,16.44,66,66,0,0,0,17.1,11.82c6.64,3.26,14.14,6.45,22.27,9.47,10.43,3.94,18.29,7.52,23.37,10.63s7.46,6.61,7.46,10.6c0,5.2-1.86,8.6-5.67,10.4s-10.63,2.75-20.08,2.75a133.12,133.12,0,0,1-27.55-3,170.18,170.18,0,0,1-27.22-8.21l-.55-.21ZM186.81,97.6V300.67a108.73,108.73,0,0,0,3,26.55,43.1,43.1,0,0,0,11.33,20.18c5.52,5.52,13.12,9.86,22.61,12.9s21.93,4.69,37.07,4.92h.42l7.52-44-.55,0c-6.22-.46-11.23-1.51-14.89-3.11a20.91,20.91,0,0,1-8.38-6.15,21.32,21.32,0,0,1-3.92-9.24,67.64,67.64,0,0,1-1-12.51V89ZM89.35,217.16c11.42,0,19.35,3.45,23.55,10.26s6.4,18.82,6.4,35.44V361h53.15V256.56a149.2,149.2,0,0,0-3.69-34.42,67.86,67.86,0,0,0-12.69-26.79,58.68,58.68,0,0,0-24-17.48c-9.95-4.09-22.55-6.16-37.47-6.16a85.63,85.63,0,0,0-16,1.58,116,116,0,0,0-12.88,3.13V88.32L12.55,96.88V361H65.7V220.89c3.15-.89,6.72-1.73,10.62-2.51A66.52,66.52,0,0,1,89.35,217.16ZM327.52,92.65A32.53,32.53,0,0,0,305.31,101c-6.27,5.56-9.44,13.28-9.44,23s3.17,17.4,9.44,23a33.7,33.7,0,0,0,44.41,0c6.27-5.56,9.45-13.28,9.45-23s-3.18-17.39-9.45-23A32.53,32.53,0,0,0,327.52,92.65Z"/>
    <path d="M511,1V511H1V1H511M12.05,361.51H66.2V221.27c3-.85,6.48-1.65,10.22-2.4a66.35,66.35,0,0,1,12.93-1.21c11.24,0,19,3.37,23.12,10,4.2,6.81,6.33,18.64,6.33,35.17v98.65H173V256.56a150.1,150.1,0,0,0-3.7-34.53,68.46,68.46,0,0,0-12.79-27,59.1,59.1,0,0,0-24.2-17.63c-10-4.11-22.68-6.2-37.66-6.2a86.43,86.43,0,0,0-16.11,1.59,118.5,118.5,0,0,0-12.29,2.94v-88L65,87.92l-52.15,8.4-.84.14V361.51m249.6,4.23.15-.85,7.35-43.05.18-1.08-1.09-.08c-6.17-.46-11.12-1.49-14.73-3.07a20.41,20.41,0,0,1-8.18-6,20.66,20.66,0,0,1-3.83-9,67.55,67.55,0,0,1-1-12.42V88.45l-1.16.19L187.15,97l-.84.13v203.5a108.8,108.8,0,0,0,3,26.68,43.5,43.5,0,0,0,11.46,20.41c5.57,5.57,13.24,9.95,22.8,13s22,4.71,37.22,4.94l.85,0m65.87-210a33,33,0,0,0,22.54-8.48c6.37-5.65,9.61-13.5,9.61-23.32s-3.24-17.66-9.61-23.32a34.2,34.2,0,0,0-45.08,0c-6.38,5.65-9.61,13.5-9.61,23.32s3.23,17.67,9.61,23.32a33,33,0,0,0,22.54,8.48m102,166.05A132.16,132.16,0,0,1,402,318.85a171.53,171.53,0,0,1-27.14-8.18l-1.1-.44-.24,1.17-8.75,42.35-.16.79.73.32c4.27,1.91,11.71,4.21,22.73,7.06s24.69,4.23,41,4.23c25.05,0,44.72-4.76,58.49-14.14s20.91-23.61,20.91-42a71.86,71.86,0,0,0-2.67-20.54,42.29,42.29,0,0,0-9.32-16.27c-4.38-4.84-10.41-9.39-17.93-13.54A216.36,216.36,0,0,0,450.12,247c-5.54-2.09-10.16-4-13.74-5.78a58.41,58.41,0,0,1-8.43-4.84,11,11,0,0,1-3.86-4.3,13.05,13.05,0,0,1-1-5.21c0-8.51,7.68-12.65,23.5-12.65a107.77,107.77,0,0,1,23.75,2.42A196.29,196.29,0,0,1,490,222.24l1.06.37.24-1.09,9.1-40.6.19-.84-.8-.31a152.2,152.2,0,0,0-24.67-6.53,172.17,172.17,0,0,0-32.39-3c-22.52,0-40.51,5.13-53.47,15.26s-19.63,24.23-19.63,41.74c0,9,1.32,16.74,3.92,23.13A48.52,48.52,0,0,0,384.67,267,66.54,66.54,0,0,0,401.9,278.9c6.66,3.27,14.17,6.46,22.31,9.49,10.41,3.93,18.24,7.49,23.28,10.59,4.8,2.94,7.23,6.36,7.23,10.17,0,5-1.76,8.24-5.38,10-3.81,1.79-10.5,2.7-19.87,2.7m-149.9,59.1a70.92,70.92,0,0,1-10.87-.69,61,61,0,0,1-9.47-2.41l-1.11-.37-.19,1.16-7,42.35-.14.84.81.27a87.89,87.89,0,0,0,18.23,3.89c6.43.7,11.35,1.06,14.64,1.06,22.56,0,40.11-6,52.15-17.79S354.77,379,354.77,354.6V176.15H300.62v177c0,9.09-1.6,16.08-4.74,20.79s-8.54,6.91-16.31,6.91M512,0H0V512H512V0ZM13.05,360.51V97.31l52.15-8.4v88.2a109.44,109.44,0,0,1,13.47-3.32,84.62,84.62,0,0,1,15.93-1.58q22.4,0,37.28,6.13t23.79,17.32a66.91,66.91,0,0,1,12.6,26.6,148,148,0,0,1,3.68,34.3v104H119.8V262.86q0-25.2-6.48-35.7t-24-10.5a66.63,66.63,0,0,0-13.13,1.23q-6.12,1.23-11,2.62v140Zm247.76,4.21q-22.76-.35-36.92-4.9t-22.4-12.77a42.27,42.27,0,0,1-11.2-19.95,107.32,107.32,0,0,1-3-26.43V98l52.15-8.4V290.17a68.66,68.66,0,0,0,1,12.6,21.6,21.6,0,0,0,4,9.45,21.28,21.28,0,0,0,8.57,6.3q5.59,2.46,15.05,3.15l-7.35,43.05Zm66.71-210a31.88,31.88,0,0,1-21.88-8.23q-9.27-8.21-9.27-22.57t9.27-22.57a33.19,33.19,0,0,1,43.75,0q9.27,8.22,9.28,22.57t-9.28,22.57a31.85,31.85,0,0,1-21.87,8.23Zm102,168.05q14.34,0,20.3-2.8t6-10.85q0-6.3-7.7-11t-23.45-10.68A238.25,238.25,0,0,1,402.34,278a65,65,0,0,1-17-11.72A47.4,47.4,0,0,1,374.52,250q-3.86-9.45-3.85-22.75,0-25.89,19.25-40.95t52.85-15.05a169.77,169.77,0,0,1,32.2,3,150.17,150.17,0,0,1,24.5,6.47l-9.1,40.6a190.76,190.76,0,0,0-19.78-5.6,107.69,107.69,0,0,0-24-2.45q-24.51,0-24.5,13.65a14.09,14.09,0,0,0,1.05,5.6,11.94,11.94,0,0,0,4.2,4.73,58.73,58.73,0,0,0,8.57,4.92q5.43,2.64,13.83,5.82a213.46,213.46,0,0,1,28.35,12.52q11.19,6.18,17.67,13.34a41.12,41.12,0,0,1,9.1,15.89A70.5,70.5,0,0,1,507.52,310q0,27.24-20.48,41.21t-57.92,14q-24.51,0-40.78-4.2t-22.57-7l8.75-42.35a170.33,170.33,0,0,0,27.3,8.23,132.94,132.94,0,0,0,27.65,3Zm-149.9,59.1q12.24,0,17.15-7.35t4.9-21.35v-176h52.15V354.6q0,36.4-17.85,53.9T284.47,426q-4.91,0-14.53-1.05a87,87,0,0,1-18-3.85l7-42.35a61.57,61.57,0,0,0,9.62,2.45,71.49,71.49,0,0,0,11,.7Z"/>
  </g>
</svg>
